PathFileType  4	(X/Y/Z) C:\Users\antoi\Documents\MyRepositories\mobilecap\ResultsAnalysis
DataRate	CameraRate	NumFrames	NumMarkers	Units	OrigDataRate	OrigDataStartFrame	OrigNumFrames
100.0	100.0	6	51	mm	100.0	134	153
Frame#	Time	r_knee			r_shank_antsup			r_ankle			r_calc			r_5meta			r_toe			L_knee			L_shank_antsup			L_ankle			L_calc			L_5meta			L_toe			r_sh2			r_sh3			r_sh4			L_sh2			L_sh3			r_thigh1			r_thigh2			r_thigh3			r_thigh4			r_thigh5			L_thigh1			L_thigh2			L_thigh3			L_thigh4			r.ASIS			r.PSIS			L.ASIS			L.PSIS			C7			R_Shoulder			L_Shoulder			R_Sternum			L_Sternum			R_humerus			R_elbow_med			R_elbow_lat			R_forearm			R_wrist_radius			R_wrist_ulna			L_humerus			L_elbow_med			L_elbow_lat			L_forearm			L_wrist_radius			L_wrist_ulna			R_HJC			L_HJC			R_HJC_reg			L_HJC_reg			
		X1	Y1	Z1	X2	Y2	Z2	X3	Y3	Z3	X4	Y4	Z4	X5	Y5	Z5	X6	Y6	Z6	X7	Y7	Z7	X8	Y8	Z8	X9	Y9	Z9	X10	Y10	Z10	X11	Y11	Z11	X12	Y12	Z12	X13	Y13	Z13	X14	Y14	Z14	X15	Y15	Z15	X16	Y16	Z16	X17	Y17	Z17	X18	Y18	Z18	X19	Y19	Z19	X20	Y20	Z20	X21	Y21	Z21	X22	Y22	Z22	X23	Y23	Z23	X24	Y24	Z24	X25	Y25	Z25	X26	Y26	Z26	X27	Y27	Z27	X28	Y28	Z28	X29	Y29	Z29	X30	Y30	Z30	X31	Y31	Z31	X32	Y32	Z32	X33	Y33	Z33	X34	Y34	Z34	X35	Y35	Z35	X36	Y36	Z36	X37	Y37	Z37	X38	Y38	Z38	X39	Y39	Z39	X40	Y40	Z40	X41	Y41	Z41	X42	Y42	Z42	X43	Y43	Z43	X44	Y44	Z44	X45	Y45	Z45	X46	Y46	Z46	X47	Y47	Z47	X48	Y48	Z48	X49	Y49	Z49	X50	Y50	Z50	X51	Y51	Z51	

134	1.33000000	1518.59654	603.24141	-75.76157	1558.67172	456.01184	-90.66740	1519.95660	92.58362	-106.13647	1463.45978	68.47110	-169.72795	1659.15653	42.84800	-79.63675	1697.53024	77.16860	-128.69305	1263.33159	580.07093	-348.54625	1203.96297	380.91068	-312.48885	968.28272	173.16435	-305.50106	901.78018	166.88024	-238.64981	1058.55852	44.66698	-344.35243	1108.33292	56.27941	-286.39961	1565.52216	344.45295	-101.53358	1500.68223	446.42229	-44.71799	1502.52105	333.54185	-46.12252	1153.87542	419.61207	-372.39280	1081.22031	329.16833	-350.00660	1467.73296	885.33365	-27.09688	1515.64362	785.61709	-40.92851	1464.85011	737.24257	-32.61602	1364.22161	844.65036	-49.06371	1409.86041	735.03827	-52.94071	1391.67185	859.39616	-367.41166	1364.97539	727.99720	-359.88558	1284.23345	883.68016	-382.31914	1259.60423	748.50733	-377.88521	1440.35535	1152.69927	-65.32820	1253.72869	1182.46551	-155.36354	1439.90377	1139.92610	-344.35241	1255.91004	1183.87517	-249.25448	1344.98853	1678.86421	-187.23853	1391.69739	1609.85686	-16.35375	1406.76622	1644.22378	-361.63911	1467.09881	1569.10401	-157.67338	1473.06335	1573.31407	-215.59624	1321.68686	1346.54965	45.79949	1217.44985	1249.95730	-3.89726	1222.57968	1270.61883	68.59543	1311.23459	1072.73395	97.48496	1344.33026	982.69057	94.44999	1312.35563	980.20859	117.40664	1385.41376	1354.49269	-439.02393	1287.06743	1283.85049	-402.11295	1313.69441	1283.05923	-474.71155	1404.53927	1096.30047	-496.20620	1436.40237	1022.78982	-487.95126	1413.05508	1023.34235	-514.08079	1361.22736	1057.02701	-101.65912	1354.55027	1053.32477	-298.99107	1369.10452	1059.44194	-108.28421	1373.38377	1062.20853	-292.56175	
135	1.34000000	1528.43557	603.30741	-75.47594	1566.06216	455.21117	-90.76328	1520.61028	92.70954	-106.33699	1463.85539	68.67777	-169.72228	1659.65360	42.21421	-79.72850	1698.34132	76.00956	-128.84035	1282.67788	579.41249	-349.79202	1218.96389	381.76089	-314.72780	977.33081	181.21279	-306.35146	911.28335	178.68237	-239.00686	1060.60317	47.33539	-344.39372	1110.48084	56.64119	-286.60841	1570.78995	343.48324	-101.79624	1508.39150	446.62265	-44.33569	1508.32665	333.72301	-45.77024	1169.14179	422.56134	-373.58034	1094.02904	334.26434	-351.05922	1478.96685	885.88478	-26.33357	1526.34424	785.93298	-40.32619	1475.66787	737.92854	-31.92335	1375.30529	845.62093	-47.91353	1420.66933	735.92207	-52.09111	1405.94258	860.44484	-367.28852	1381.79565	728.48627	-360.83785	1298.31556	882.84929	-380.72360	1275.98992	747.34938	-377.56647	1452.51282	1153.88352	-64.25978	1265.50357	1183.36772	-153.76781	1450.98144	1141.26931	-343.28420	1267.24327	1184.72372	-247.75100	1355.88722	1679.86909	-184.91832	1402.74233	1610.57490	-14.15379	1417.90544	1645.81360	-359.34453	1478.21037	1570.31784	-155.51243	1484.14293	1574.61972	-213.43900	1332.92106	1347.08101	47.33008	1228.53593	1250.81747	-2.34718	1233.78390	1271.05720	69.81322	1322.28333	1073.08973	98.70830	1355.37704	982.99782	95.51467	1323.28908	980.52315	118.42376	1396.17626	1356.18294	-437.08034	1297.74887	1285.88263	-400.05968	1324.30413	1284.93923	-472.60859	1414.04826	1097.68394	-494.36425	1445.44776	1023.80054	-486.23127	1421.99251	1024.62503	-512.34809	1373.37816	1058.09255	-100.43330	1366.04372	1054.43955	-297.74178	1381.28092	1060.68015	-106.83232	1384.69225	1063.33943	-291.12768	
136	1.35000000	1537.57137	603.24352	-75.23583	1572.90962	454.38579	-90.84981	1521.06773	92.86738	-106.61612	1464.13177	68.79829	-169.79439	1659.98685	41.90557	-79.81456	1698.94412	75.09063	-128.96903	1302.97734	578.69683	-351.18510	1234.92901	382.81282	-316.94465	987.58750	189.83375	-307.28828	922.13892	191.27599	-239.58951	1063.22383	50.86238	-344.43001	1113.16900	57.58101	-286.82249	1575.53248	342.48333	-102.08360	1515.35705	446.73013	-44.14049	1513.43460	333.83861	-45.66733	1185.61845	425.61036	-374.92148	1108.07336	339.61869	-352.30010	1489.78030	886.20988	-25.43491	1536.46005	785.94043	-39.61611	1485.80617	738.41469	-31.26134	1385.93240	846.62721	-46.86506	1430.90727	736.84975	-51.39172	1420.54511	861.55074	-367.27514	1399.26254	729.05273	-361.99754	1312.81974	881.86108	-379.25586	1293.09593	745.95379	-377.52943	1464.67833	1155.04378	-63.21741	1277.21674	1184.32754	-152.00247	1461.79962	1142.67252	-342.23618	1278.42814	1185.61813	-246.08723	1366.64077	1680.90598	-182.61916	1413.78889	1611.39420	-11.98176	1428.81085	1647.43009	-357.09086	1489.23389	1571.60312	-153.42437	1495.11959	1576.04109	-211.33852	1344.14844	1347.74298	48.91116	1239.64016	1251.82717	-0.84309	1245.02286	1271.64583	71.13280	1333.41869	1073.60345	99.90865	1366.49017	983.46200	96.57783	1334.37161	981.02833	119.45457	1406.80709	1357.91903	-435.17790	1308.29178	1287.92409	-398.06814	1334.78592	1286.83049	-470.53724	1423.55824	1099.15266	-492.55307	1454.57075	1024.92783	-484.51962	1431.00279	1025.99021	-510.63976	1385.48890	1059.16408	-99.18144	1377.30839	1055.61306	-296.45652	1393.38224	1061.98255	-105.33284	1395.75850	1064.51151	-289.64273	
137	1.36000000	1546.01211	603.03805	-75.00009	1579.21796	453.51283	-90.85715	1521.40251	93.03014	-106.91857	1464.34560	68.87950	-169.91288	1660.20267	41.76431	-79.85933	1699.39822	74.22641	-129.03252	1324.07610	577.98728	-352.63512	1251.75140	384.08497	-319.01585	999.03596	198.94348	-308.29175	934.36622	204.51484	-240.38860	1066.51290	55.31118	-344.47627	1116.55243	59.23066	-287.07635	1579.85326	341.47573	-102.30264	1521.58872	446.73757	-44.07872	1517.86252	333.87511	-45.75571	1203.21683	428.76574	-376.34656	1123.29469	345.14655	-353.64535	1500.19112	886.32397	-24.42387	1546.05324	785.67284	-38.79294	1495.29161	738.69925	-30.60753	1396.11219	847.64027	-45.93107	1440.61482	737.80417	-50.81408	1435.46243	862.71302	-367.40251	1417.28758	729.72479	-363.31886	1327.66468	880.76371	-377.96644	1310.81810	744.39065	-377.72622	1476.82672	1156.13199	-62.23245	1288.85253	1185.31148	-150.09773	1472.35120	1144.07415	-341.22391	1289.45405	1186.52309	-244.29107	1377.23954	1681.93670	-180.35125	1424.83335	1612.27238	-9.85227	1439.44424	1649.00767	-354.90153	1500.14751	1572.89392	-151.43680	1505.97757	1577.51960	-209.31628	1355.36855	1348.49323	50.55665	1250.78867	1252.87463	0.65786	1256.29214	1272.33200	72.57708	1344.64284	1074.22801	101.11940	1377.72848	984.07893	97.65341	1345.61228	981.68184	120.49825	1417.27297	1359.63787	-433.32113	1318.66322	1289.89437	-396.14966	1345.10077	1288.67435	-468.51375	1433.07354	1100.65179	-490.79555	1463.79623	1026.14076	-482.82768	1440.11880	1027.39297	-508.98231	1397.52840	1060.19983	-97.92550	1388.32178	1056.79568	-295.15535	1405.38120	1063.30596	-103.81592	1406.56471	1065.67799	-288.12638	
138	1.37000000	1553.81275	602.69407	-74.71257	1585.02903	452.58460	-90.71915	1521.67298	93.18215	-107.19429	1464.54571	68.96588	-170.04577	1660.34389	41.66864	-79.83086	1699.76291	73.28603	-129.00841	1345.80208	577.37828	-354.06290	1269.32722	385.60038	-320.88792	1011.65078	208.40866	-309.35544	947.96709	218.20383	-241.37776	1070.56598	60.65415	-344.55368	1120.75764	61.64504	-287.41348	1583.85589	340.48015	-102.37338	1527.16926	446.64456	-44.05818	1521.70146	333.82321	-45.94478	1221.79450	432.05613	-377.79647	1139.58694	350.78810	-355.02550	1510.25433	886.27941	-23.33431	1555.21967	785.19970	-37.85793	1504.21236	738.81508	-29.92592	1405.88842	848.63709	-45.09603	1449.87233	738.75862	-50.27648	1450.67972	863.95927	-367.68139	1435.76309	730.54971	-364.72644	1342.76644	879.63047	-376.88919	1329.02481	742.78285	-378.09385	1488.92702	1157.11400	-61.32933	1300.39475	1186.29251	-148.10085	1482.64652	1145.42629	-340.25661	1300.31792	1187.40791	-242.39355	1387.68099	1682.93541	-178.12949	1435.86741	1613.17321	-7.77979	1449.78562	1650.49851	-352.79600	1510.93348	1574.14032	-149.57189	1516.70034	1578.99926	-207.39462	1366.58276	1349.28877	52.27303	1261.98345	1253.86061	2.23104	1267.58535	1273.06564	74.15930	1355.95932	1074.92104	102.36420	1389.13851	984.83068	98.74623	1357.01663	982.43708	121.55668	1427.54619	1361.28536	-431.51479	1328.84756	1291.72678	-394.30480	1355.21790	1290.42056	-466.54933	1442.59293	1102.13206	-489.10988	1473.12772	1027.40049	-481.17035	1449.35080	1028.79094	-507.39419	1409.46638	1061.16867	-96.68745	1399.07916	1057.94747	-293.85903	1417.25103	1064.62081	-102.30888	1417.10882	1066.80215	-286.59520	
139	1.38000000	1561.06997	602.23347	-74.31884	1590.42440	451.61164	-90.39884	1521.92721	93.31976	-107.40876	1464.76841	69.09761	-170.16319	1660.44750	41.54013	-79.71040	1700.09779	72.20598	-128.90563	1367.97722	576.97935	-355.41540	1287.56784	387.38372	-322.56545	1025.39661	218.05639	-310.47763	962.91416	232.09933	-242.51356	1075.48836	66.77693	-344.68215	1125.88549	64.79880	-287.87611	1587.62824	339.50724	-102.25790	1532.25445	446.45836	-43.97192	1525.11702	333.68097	-46.13108	1241.17919	435.50275	-379.22581	1156.81476	356.50453	-356.39264	1520.04063	886.14631	-22.20067	1564.05590	784.60411	-36.81934	1512.68698	738.81674	-29.17848	1415.32280	849.60575	-44.31936	1458.74862	739.67672	-49.67785	1466.16649	865.33771	-368.10086	1454.55896	731.58508	-366.13160	1358.05331	878.55275	-376.03726	1347.57266	741.28523	-378.56978	1500.94569	1157.97602	-60.51922	1311.82965	1187.25219	-146.06970	1492.71245	1146.70182	-339.33493	1311.02495	1188.24872	-240.42341	1397.96942	1683.88974	-175.97008	1446.87809	1614.06933	-5.77665	1459.83618	1651.88000	-350.78668	1521.58329	1575.31621	-147.84258	1527.27299	1580.43552	-205.59362	1377.79509	1350.09224	54.05631	1273.20109	1254.72758	3.94386	1278.89932	1273.80729	75.88339	1367.37251	1075.64907	103.65201	1400.72953	985.67580	99.85257	1368.57956	983.24368	122.63619	1437.60393	1362.82258	-429.76582	1338.84787	1293.37657	-392.52661	1365.11978	1292.02820	-464.64742	1452.11186	1103.55584	-487.50632	1482.54812	1028.66471	-479.56368	1458.68918	1030.14971	-505.88321	1421.27872	1062.05468	-95.48438	1409.59650	1059.04302	-292.58463	1428.97089	1065.91499	-100.82921	1427.40542	1067.86162	-285.05882	
